<svg xmlns="http://www.w3.org/2000/svg" viewBox="0 0 1600 1000" width="1600" height="1000">
<defs>
  <linearGradient id="bg" x1="0" y1="0" x2="1" y2="1"><stop stop-color="#050b19"/><stop offset=".55" stop-color="#101a38"/><stop offset="1" stop-color="#08040f"/></linearGradient>
  <linearGradient id="floor" x1="0" y1="0" x2="0" y2="1"><stop stop-color="#11192f"/><stop offset="1" stop-color="#02050d"/></linearGradient>
  <radialGradient id="glow1"><stop stop-color="#9a6cff" stop-opacity=".52"/><stop offset="1" stop-color="#9a6cff" stop-opacity="0"/></radialGradient>
  <radialGradient id="glow2"><stop stop-color="#57efff" stop-opacity=".44"/><stop offset="1" stop-color="#57efff" stop-opacity="0"/></radialGradient>
  <linearGradient id="beam" x1="0" y1="0" x2="0" y2="1"><stop stop-color="#9a6cff" stop-opacity=".7"/><stop offset="1" stop-color="#9a6cff" stop-opacity="0"/></linearGradient>
  <filter id="blur"><feGaussianBlur stdDeviation="28"/></filter>
  <filter id="soft"><feGaussianBlur stdDeviation="10"/></filter>
  <filter id="shadow"><feDropShadow dx="0" dy="18" stdDeviation="22" flood-color="#000" flood-opacity=".55"/></filter>
</defs>
<rect width="1600" height="1000" fill="url(#bg)"/>
<circle cx="330" cy="260" r="360" fill="url(#glow1)" filter="url(#blur)"/>
<circle cx="1320" cy="220" r="340" fill="url(#glow2)" filter="url(#blur)"/>
<!-- ceiling truss -->
<g stroke="#7d90b4" stroke-opacity=".18" fill="none">
 <path d="M0 105H1600M0 175H1600M80 0L430 220M1520 0L1170 220"/>
 <path d="M210 60H1390" stroke-width="7"/><path d="M280 60L360 170M500 60L580 170M720 60L800 170M940 60L1020 170M1160 60L1240 170"/>
</g>
<!-- lights -->
<g>
 <circle cx="240" cy="118" r="11" fill="#9a6cff"/><circle cx="520" cy="102" r="9" fill="#fff"/><circle cx="820" cy="112" r="10" fill="#57efff"/><circle cx="1180" cy="102" r="9" fill="#fff"/><circle cx="1380" cy="126" r="11" fill="#9a6cff"/>
 <path d="M240 130L110 700H370Z" fill="url(#beam)" opacity=".28"/><path d="M820 122L690 720H950Z" fill="url(#beam)" opacity=".18"/><path d="M1380 138L1240 730H1530Z" fill="url(#beam)" opacity=".22"/>
</g>
<!-- expo side structures -->
<g opacity=".9">
 <rect x="36" y="300" width="260" height="390" rx="20" fill="#0d1830" stroke="#9a6cff" stroke-opacity=".42"/>
 <rect x="1304" y="300" width="260" height="390" rx="20" fill="#0d1830" stroke="#57efff" stroke-opacity=".42"/>
 <rect x="68" y="342" width="196" height="116" rx="14" fill="#9a6cff" fill-opacity=".12"/>
 <rect x="1336" y="342" width="196" height="116" rx="14" fill="#57efff" fill-opacity=".12"/>
</g>
<!-- floor -->
<path d="M0 650H1600V1000H0Z" fill="url(#floor)"/>
<g stroke="#8aa6d6" stroke-opacity=".09">
 <path d="M800 650L560 1000M800 650L1040 1000M800 650L300 1000M800 650L1300 1000"/>
 <path d="M0 760H1600M0 875H1600"/>
</g>

<!-- holographic lab core -->
<g filter="url(#shadow)">
 <circle cx="920" cy="410" r="170" fill="#9a6cff" fill-opacity=".08" stroke="#9a6cff" stroke-opacity=".4" stroke-width="4"/>
 <circle cx="920" cy="410" r="118" fill="#57efff" fill-opacity=".07" stroke="#57efff" stroke-opacity=".35"/>
 <path d="M820 410H1020M920 310V510M850 340L990 480M990 340L850 480" stroke="#57efff" stroke-opacity=".35" stroke-width="5"/>
</g>
<!-- robot -->
<g transform="translate(1130 440)">
 <ellipse cx="0" cy="-10" rx="78" ry="92" fill="#d8e6f2" stroke="#57efff" stroke-width="4"/>
 <rect x="-60" y="-30" width="120" height="52" rx="26" fill="#0c1730"/><circle cx="-28" cy="-5" r="10" fill="#57efff"/><circle cx="28" cy="-5" r="10" fill="#9a6cff"/>
 <path d="M-72 88Q0 48 72 88L95 285H-95Z" fill="#d8e6f2" stroke="#9a6cff" stroke-width="4"/>
 <path d="M-92 135L-190 220M92 135L190 220" stroke="#d8e6f2" stroke-width="34" stroke-linecap="round"/>
</g>
<!-- VR student -->
<g transform="translate(520 570)">
 <circle cx="0" cy="0" r="58" fill="#19141e"/><rect x="-62" y="-26" width="124" height="50" rx="22" fill="#0b1830" stroke="#9a6cff" stroke-width="5"/>
 <path d="M-110 90Q0 20 110 90L130 315H-130Z" fill="#111726"/>
 <path d="M80 160L250 80" stroke="#d8b09a" stroke-width="28" stroke-linecap="round"/>
 <circle cx="270" cy="70" r="24" fill="#0b1830" stroke="#57efff" stroke-width="5"/>
</g>

<!-- generic crowd silhouettes -->
<g fill="#050913" opacity=".88">
 <g transform="translate(90 690)"><circle cx="0" cy="0" r="26"/><path d="M-38 34Q0 10 38 34L54 170H-54Z"/></g><g transform="translate(170 708)"><circle cx="0" cy="0" r="26"/><path d="M-38 34Q0 10 38 34L54 170H-54Z"/></g><g transform="translate(255 690)"><circle cx="0" cy="0" r="26"/><path d="M-38 34Q0 10 38 34L54 170H-54Z"/></g><g transform="translate(345 708)"><circle cx="0" cy="0" r="26"/><path d="M-38 34Q0 10 38 34L54 170H-54Z"/></g><g transform="translate(1250 690)"><circle cx="0" cy="0" r="26"/><path d="M-38 34Q0 10 38 34L54 170H-54Z"/></g><g transform="translate(1335 708)"><circle cx="0" cy="0" r="26"/><path d="M-38 34Q0 10 38 34L54 170H-54Z"/></g><g transform="translate(1420 690)"><circle cx="0" cy="0" r="26"/><path d="M-38 34Q0 10 38 34L54 170H-54Z"/></g><g transform="translate(1510 708)"><circle cx="0" cy="0" r="26"/><path d="M-38 34Q0 10 38 34L54 170H-54Z"/></g>
</g>
<!-- reflected accents -->
<g opacity=".18" filter="url(#soft)">
 <ellipse cx="420" cy="900" rx="300" ry="42" fill="#9a6cff"/><ellipse cx="1160" cy="920" rx="260" ry="38" fill="#57efff"/>
</g>
</svg>